<svg width="139" height="40" viewBox="0 0 139 40" fill="none" xmlns="http://www.w3.org/2000/svg">
<path d="M67.5151 15.546C70.4335 12.4765 75.3627 12.3166 78.3596 13.9483C79.2125 14.4132 80.0076 14.9655 80.6073 15.7251C80.9878 16.2049 81.1595 16.0893 81.5416 15.7384C84.6628 12.8807 88.3172 12.1759 92.2439 13.5367C95.3815 14.625 96.757 17.2384 97.2575 20.3804C97.3727 21.2103 97.4222 22.048 97.4056 22.8857C97.4056 28.1628 97.3923 33.44 97.416 38.7171C97.416 39.2754 97.2782 39.4101 96.7289 39.3982C94.8307 39.3612 92.931 39.3583 91.0327 39.3982C90.3842 39.4116 90.1665 39.2768 90.1725 38.5691C90.208 33.7613 90.1917 28.9535 90.1902 24.1443C90.2067 23.5527 90.157 22.9613 90.0422 22.3808C89.6394 20.604 88.5615 19.529 87.0334 19.3868C85.0908 19.2047 83.4798 20.1064 82.7765 21.7722C82.5763 22.2488 82.4756 22.7612 82.4803 23.2781C82.4907 28.4072 82.4803 33.5362 82.4981 38.6653C82.4981 39.2235 82.387 39.4056 81.7874 39.3982C79.8151 39.3568 77.8399 39.3642 75.8646 39.3982C75.3405 39.4071 75.2146 39.2502 75.2161 38.7408C75.2368 33.9582 75.2294 29.1742 75.225 24.3901C75.2476 23.7246 75.2004 23.0586 75.0843 22.403C74.7734 20.9104 74.0375 19.7555 72.4724 19.4416C70.8436 19.1218 69.3822 19.5438 68.3265 20.9223C67.7873 21.6023 67.4992 22.4474 67.5106 23.3151C67.5299 28.4442 67.5106 33.5732 67.5328 38.7023C67.5328 39.2398 67.4277 39.4086 66.8562 39.3968C64.8839 39.3568 62.9102 39.3657 60.9334 39.3968C60.4567 39.3968 60.3086 39.2857 60.3086 38.7897C60.3254 30.5541 60.3254 22.3181 60.3086 14.0816C60.3086 13.5914 60.4567 13.4656 60.9334 13.473C62.9309 13.4997 64.9313 13.5026 66.9258 13.473C67.4336 13.4641 67.561 13.6314 67.518 14.0964C67.4855 14.5317 67.5151 14.9759 67.5151 15.546Z" fill="white"/>
<path d="M18.9327 14.6205C19.0112 13.4937 19.0112 13.4937 20.1424 13.4937C21.9192 13.4937 23.696 13.507 25.4729 13.4848C25.9245 13.4848 26.114 13.5574 26.114 14.0771C26.0962 22.3363 26.0962 30.5956 26.114 38.8548C26.114 39.416 25.9023 39.4886 25.4255 39.4826C23.5761 39.459 21.7238 39.4308 19.8774 39.493C19.1148 39.5197 18.8409 39.3005 18.9712 38.5617C18.9757 38.4418 18.9648 38.3218 18.9386 38.2048C11.7395 41.56 5.16828 38.2048 2.40533 34.2158C-0.970627 29.3444 -0.787022 22.5732 2.91912 17.9639C6.224 13.8491 12.5776 11.5096 18.9327 14.6205ZM12.9907 20.2338C9.56442 20.2086 6.86366 22.899 6.85033 26.3579C6.837 29.8375 9.48446 32.5456 12.9137 32.5605C16.2689 32.5753 18.9238 29.916 18.9564 26.506C18.9904 22.9819 16.3992 20.259 12.9907 20.2338Z" fill="white"/>
<path d="M47.6224 37.0381C46.3088 38.3885 44.6306 39.3275 42.7924 39.7403C39.0907 40.5902 35.241 39.3109 33.2628 36.5405C32.14 34.9554 31.5434 33.0578 31.557 31.1153C31.5052 25.3955 31.5363 19.6741 31.5215 13.9543C31.5215 13.5545 31.6444 13.4627 32.0249 13.4656C34.0712 13.4834 36.119 13.4997 38.1653 13.4582C38.7916 13.4449 38.7457 13.7677 38.7442 14.1852C38.7383 19.0221 38.7383 23.8551 38.7442 28.6841C38.7287 29.2014 38.7624 29.719 38.8449 30.2299C39.3084 32.5783 40.9682 33.748 43.4188 33.4874C45.8337 33.2372 47.5425 31.4914 47.5425 29.2719C47.5425 24.2376 47.5528 19.2121 47.5291 14.1808C47.5291 13.5989 47.6772 13.4404 48.2576 13.4538C50.2047 13.4908 52.1548 13.4863 54.1034 13.4538C54.6246 13.4449 54.8141 13.5352 54.8126 14.1216C54.7909 22.3334 54.7909 30.5448 54.8126 38.7557C54.8126 39.2162 54.7267 39.3879 54.2203 39.379C52.2229 39.3479 50.2225 39.3509 48.2265 39.379C47.7409 39.379 47.581 39.2531 47.6195 38.7675C47.655 38.27 47.6224 37.7532 47.6224 37.0381Z" fill="white"/>
<path d="M109.87 15.8228C113.292 12.3817 118.279 12.3358 121.42 13.9097C124.006 15.2083 125.315 17.4189 125.83 20.1819C125.964 20.9593 126.025 21.7475 126.013 22.5362C126.013 27.911 126.002 33.2859 126.023 38.6608C126.023 39.216 125.916 39.41 125.314 39.4011C123.367 39.3582 121.417 39.3656 119.469 39.4011C118.948 39.41 118.821 39.2664 118.822 38.7511C118.843 33.8945 118.836 29.0363 118.834 24.1797C118.834 23.312 118.75 22.4562 118.39 21.6552C117.524 19.7614 115.369 18.9677 113.111 19.6192C111.474 20.0931 109.805 21.864 109.854 24.0257C109.955 28.9046 109.876 33.7879 109.898 38.6697C109.898 39.2279 109.787 39.4174 109.188 39.41C107.215 39.3671 105.242 39.3789 103.265 39.41C102.801 39.41 102.695 39.2826 102.696 38.834C102.71 30.5748 102.71 22.3151 102.696 14.0548C102.696 13.5884 102.835 13.4818 103.281 13.4877C105.304 13.5114 107.326 13.5084 109.352 13.4877C109.764 13.4877 109.919 13.5929 109.892 14.0193C109.844 14.5612 109.87 15.1239 109.87 15.8228Z" fill="white"/>
<path d="M131.3 26.3772C131.3 22.3601 131.322 18.3416 131.279 14.323C131.271 13.5827 131.49 13.4464 132.168 13.4657C134.016 13.516 135.87 13.5071 137.715 13.4657C138.307 13.4524 138.505 13.5693 138.504 14.206C138.479 22.3666 138.479 30.5261 138.504 38.6847C138.504 39.2162 138.406 39.4028 137.824 39.3909C135.902 39.3485 133.977 39.3485 132.049 39.3909C131.457 39.4028 131.268 39.2858 131.274 38.6506C131.317 34.5594 131.3 30.4669 131.3 26.3772Z" fill="white"/>
<path d="M131.014 3.90777C131.029 1.70008 132.815 -0.0248996 135.059 0.000271997C136.114 0.0175509 137.118 0.452979 137.852 1.21077C138.585 1.96857 138.987 2.98662 138.97 4.04102C138.953 5.09542 138.517 6.09977 137.759 6.83313C137.002 7.56649 135.984 7.9688 134.929 7.95152C132.689 7.91154 130.999 6.16729 131.014 3.90777Z" fill="white"/>
</svg>
