<svg width="255" height="44" viewBox="0 0 255 44" fill="none" xmlns="http://www.w3.org/2000/svg">
<path d="M115.297 18.7947C115.288 23.6442 115.278 28.493 115.269 33.3413C115.269 34.7596 115.258 34.7704 113.816 34.7704C112.775 34.7704 111.733 34.7561 110.692 34.7704C110.025 34.7811 109.725 34.5185 109.725 33.82C109.737 26.0242 109.737 18.2296 109.725 10.4362C109.725 9.70202 110.011 9.43227 110.733 9.45013C112.101 9.48229 113.471 9.48943 114.842 9.45013C115.556 9.42691 115.985 9.69129 116.353 10.2951C118.152 13.2391 119.985 16.1634 121.81 19.0913C122.425 20.0756 122.437 20.0738 123.052 19.0913C124.86 16.1866 126.685 13.2927 128.454 10.3648C128.863 9.69132 129.327 9.41794 130.106 9.45188C131.357 9.50547 132.607 9.45194 133.858 9.46801C135.042 9.46801 135.071 9.49832 135.072 10.6577C135.072 15.0891 135.072 19.5218 135.072 23.9556C135.072 27.1979 135.049 30.442 135.088 33.6843C135.088 34.5061 134.812 34.8115 134.017 34.7865C132.916 34.7508 131.814 34.7418 130.715 34.7865C129.837 34.8258 129.519 34.5185 129.527 33.6075C129.565 28.9968 129.544 24.3861 129.544 19.7737V18.6751C129.008 18.918 128.886 19.3056 128.681 19.6147C126.825 22.4169 124.975 25.2233 123.129 28.0339C122.371 29.1808 122.355 29.1701 121.616 28.0554C119.56 24.9589 117.499 21.8625 115.431 18.7661L115.363 18.7322L115.297 18.7947Z" fill="#F3F3F3"/>
<path d="M140.401 22.0849C140.401 18.3072 140.401 14.529 140.401 10.7502C140.401 9.49972 140.432 9.47115 141.625 9.46936C145.226 9.46936 148.826 9.46936 152.425 9.46936C154.129 9.44762 155.812 9.83994 157.331 10.6126C161.345 12.692 161.44 18.596 158.158 20.9166C157.349 21.4864 157.365 21.5453 158.253 21.9705C160.979 23.2746 162.102 25.463 161.865 28.4212C161.638 31.2366 160.055 32.9782 157.495 33.95C155.912 34.5503 154.262 34.7325 152.586 34.736C148.956 34.7444 145.324 34.7444 141.689 34.736C140.439 34.736 140.403 34.6789 140.392 33.4141C140.392 33.3534 140.392 33.2944 140.392 33.2355C140.397 29.5162 140.4 25.7994 140.401 22.0849ZM149.808 29.8468C150.702 29.8468 151.595 29.8468 152.488 29.8468C153.233 29.8579 153.974 29.7301 154.673 29.4698C155.784 29.0285 156.329 28.2319 156.322 27.0743C156.322 25.9578 155.786 25.1825 154.714 24.7377C154.107 24.4873 153.457 24.3551 152.801 24.3482C150.748 24.3214 148.692 24.3358 146.646 24.3161C146.091 24.3161 145.816 24.5287 145.819 25.0985C145.819 26.4062 145.83 27.7138 145.819 29.0286C145.819 29.6395 146.091 29.8753 146.689 29.8628C147.727 29.8271 148.767 29.8432 149.808 29.8432V29.8468ZM149.072 19.6643V19.5839C150.08 19.5839 151.087 19.6 152.095 19.575C152.421 19.5501 152.741 19.4797 153.047 19.3659C154.424 18.9229 155.053 17.9708 154.885 16.6113C154.748 15.4966 153.933 14.7178 152.563 14.4999C150.559 14.1801 148.535 14.3837 146.52 14.3552C146.046 14.3552 145.819 14.6249 145.819 15.0876C145.819 16.3631 145.819 17.6385 145.819 18.914C145.819 19.4231 146.05 19.6751 146.577 19.6679C147.409 19.6518 148.242 19.6625 149.072 19.6625V19.6643Z" fill="#F3F3F3"/>
<path d="M237.952 19.1664V22.9928C237.952 26.5334 237.926 30.0741 237.97 33.6147C237.983 34.5329 237.647 34.824 236.777 34.7883C235.648 34.7401 234.515 34.7615 233.383 34.7776C232.704 34.7883 232.433 34.4971 232.434 33.8094C232.446 26.0148 232.446 18.2202 232.434 10.4256C232.434 9.67528 232.754 9.43591 233.46 9.45735C234.499 9.48951 235.544 9.50916 236.584 9.45735C237.363 9.41269 237.835 9.73427 238.292 10.3345C241.679 14.8219 245.082 19.298 248.501 23.7628C248.712 24.0397 248.941 24.2987 249.216 24.656C249.443 24.2183 249.373 23.8628 249.373 23.5252C249.373 19.2378 249.373 14.9534 249.373 10.6721C249.373 9.50912 249.401 9.48595 250.584 9.47881C251.656 9.47881 252.728 9.5181 253.8 9.4645C254.655 9.42163 254.929 9.74319 254.925 10.5953C254.895 15.9795 254.911 21.3654 254.911 26.7496C254.911 29.0719 254.879 31.3942 254.927 33.7165C254.943 34.5597 254.611 34.7883 253.83 34.8062C250.232 34.8776 250.234 34.8901 248.058 32.0301C244.94 27.9357 241.821 23.8419 238.699 19.7487C238.521 19.5218 238.333 19.3093 238.149 19.0895L237.952 19.1664Z" fill="#F3F3F3"/>
<path d="M166.479 22.039C166.479 18.2625 166.479 14.4855 166.479 10.7079C166.479 9.50206 166.516 9.46812 167.744 9.4574C171.255 9.4574 174.768 9.4574 178.283 9.4574C180.218 9.4574 182.085 9.79143 183.775 10.7722C188.859 13.7143 188.916 21.7852 183.884 24.8846C183.612 25.0667 183.324 25.2245 183.024 25.3563C182.374 25.6117 182.335 25.9636 182.717 26.5103C183.944 28.2663 185.143 30.0401 186.352 31.8069C186.872 32.5679 187.383 33.3361 187.91 34.0935C188.21 34.5222 188.125 34.7634 187.59 34.7616C185.804 34.7616 184.018 34.7312 182.231 34.7169C181.736 34.7169 181.517 34.3596 181.279 34.0024C179.825 31.8265 178.351 29.6632 176.924 27.4677C176.54 26.8782 176.1 26.6013 175.391 26.6424C174.591 26.6889 173.783 26.6746 172.983 26.6424C172.301 26.6192 172.027 26.8943 172.036 27.5892C172.065 29.5811 172.015 31.5747 172.058 33.5665C172.076 34.3972 171.818 34.7687 170.947 34.733C169.818 34.6847 168.685 34.6937 167.553 34.733C166.743 34.758 166.461 34.4293 166.466 33.6255C166.495 29.7669 166.481 25.9047 166.479 22.039ZM172.047 18.0321C172.047 18.9824 172.056 19.9346 172.047 20.8903C172.047 21.3923 172.226 21.6888 172.762 21.6888C174.753 21.6888 176.752 21.8352 178.735 21.6066C180.613 21.3886 181.819 20.0417 181.86 18.2893C181.913 16.0438 180.634 14.7022 178.121 14.5504C176.372 14.445 174.612 14.5236 172.856 14.4915C172.224 14.4808 172.022 14.7701 172.036 15.3578C172.063 16.2456 172.047 17.1389 172.047 18.0321Z" fill="#F3F3F3"/>
<path d="M21.7762 43.9543H20.3471C18.918 43.9543 18.9073 43.9544 19.002 42.4931C19.2425 38.4197 20.4793 34.4676 22.6038 30.9838C24.7284 27.5 27.6756 24.5911 31.1869 22.5124C32.0801 21.9764 32.0801 21.9336 31.1869 21.3816C23.8937 16.8489 19.8392 10.3077 19.0234 1.75806C18.8573 0.00204027 18.868 0.000281846 20.5972 0.000281846C21.669 0.000281846 22.7409 0.014573 23.8127 0.000281846C24.3915 -0.0086501 24.6327 0.193226 24.6952 0.818462C25.5116 8.84649 29.4898 14.604 37.0105 17.7623C38.9756 18.5876 41.0585 18.936 43.1682 19.1235C43.7166 19.1718 43.9828 19.3325 43.9757 19.9131C43.956 21.2815 43.9524 22.6499 43.9757 24.0218C43.9882 24.6435 43.7184 24.8221 43.1253 24.8614C33.4788 25.517 26.4405 31.9409 24.9042 41.4624C24.8577 41.7536 24.7916 42.0447 24.7255 42.3323C24.6112 42.8182 24.9042 43.4453 24.4933 43.7811C24.0163 44.1705 23.3464 43.9115 22.7605 43.9597C22.4318 43.9723 22.1031 43.9543 21.7762 43.9543Z" fill="#F3F3F3"/>
<path d="M103.007 34.8455C102.233 34.8455 101.458 34.8151 100.685 34.8455C100.052 34.8794 99.711 34.6453 99.502 34.0362C98.9661 32.4892 98.3516 30.9726 97.8282 29.4238C97.5852 28.7092 97.2208 28.5431 96.4955 28.6985C94.5466 29.1165 92.5869 29.4809 90.6237 29.8257C88.6318 30.174 87.2938 31.1994 86.6329 33.1788C85.9826 35.1259 86.2756 34.8097 84.2766 34.8365C83.1458 34.8508 82.0151 34.8365 80.8825 34.8365C79.6124 34.8365 79.5891 34.8025 80.0786 33.586C82.3235 28.0137 84.5708 22.442 86.8204 16.8708C87.7136 14.6646 88.6229 12.4673 89.4804 10.2469C89.7394 9.57339 90.0824 9.25897 90.8452 9.28755C92.36 9.34293 93.882 9.32155 95.3969 9.29654C95.9757 9.28582 96.3258 9.46086 96.5509 10.0307C99.7164 17.9897 102.894 25.9439 106.085 33.8933C106.378 34.6222 106.162 34.8705 105.413 34.8419C104.615 34.8222 103.809 34.8455 103.007 34.8455ZM93.1335 16.7029L92.862 16.7278C91.8509 19.4146 90.8386 22.1013 89.8251 24.7881C89.5482 25.5312 90.0842 25.4329 90.4914 25.3579C91.9795 25.0882 93.4586 24.763 94.9574 24.5165C95.747 24.3861 95.8506 24.0253 95.5934 23.3446C95.1021 22.0727 94.652 20.7848 94.1786 19.5057C93.8338 18.5697 93.4819 17.6372 93.1335 16.7029Z" fill="#F3F3F3"/>
<path d="M216.169 9.31229C217.009 9.41232 218.211 8.92462 219.027 9.52128C219.804 10.0858 219.906 11.2969 220.278 12.2312C223.136 19.3541 225.983 26.4807 228.819 33.6108C229.297 34.8112 229.276 34.8434 227.986 34.8452C226.5 34.8452 225.01 34.8201 223.52 34.8576C222.875 34.8719 222.554 34.62 222.348 34.0252C221.812 32.4799 221.205 30.9597 220.673 29.4127C220.448 28.7536 220.121 28.5428 219.422 28.6982C217.384 29.1287 215.333 29.4931 213.288 29.8825C211.446 30.2398 210.194 31.2134 209.551 33.0462C208.8 35.1899 209.229 34.8183 206.941 34.8505C205.81 34.8666 204.679 34.8612 203.546 34.8505C202.555 34.8398 202.475 34.7379 202.853 33.8162C205.286 27.7746 207.723 21.7342 210.163 15.695C210.878 13.9087 211.646 12.1223 212.307 10.3091C212.593 9.5356 213.021 9.23725 213.827 9.30513C214.547 9.3623 215.265 9.31229 216.169 9.31229ZM216.017 16.7205L215.733 16.6954C214.694 19.4626 213.648 22.2332 212.623 24.9986C212.478 25.3862 212.759 25.4648 213.071 25.4058C214.764 25.0879 216.454 24.7651 218.143 24.4376C218.524 24.3626 218.718 24.1286 218.572 23.7231C217.724 21.3889 216.872 19.0564 216.017 16.7258V16.7205Z" fill="#F3F3F3"/>
<path d="M53.9758 22.1551C53.9758 14.2592 60.2282 8.48737 68.133 9.02686C71.1984 9.23587 73.9548 10.1201 76.3253 12.1316C76.9756 12.6836 77.131 13.1124 76.4629 13.7787C75.6925 14.5649 74.9684 15.3952 74.2942 16.2653C73.8101 16.8763 73.4314 16.9798 72.7972 16.4153C71.6222 15.3466 70.173 14.626 68.6117 14.3342C64.1672 13.5393 60.2711 16.56 59.8816 21.1046C59.7548 22.5766 59.8816 24.02 60.4622 25.3919C62.195 29.5203 66.6699 31.1871 70.7089 29.2149C71.5951 28.787 72.4141 28.2321 73.1402 27.5678C73.6297 27.1158 73.978 27.1855 74.405 27.6482C75.1517 28.4575 75.918 29.2559 76.7273 29.9991C77.2632 30.4903 77.1792 30.8316 76.7058 31.3139C73.6904 34.3829 69.9676 35.494 65.7946 35.1296C58.833 34.5276 53.9794 29.1363 53.9758 22.1551Z" fill="#F3F3F3"/>
<path d="M0.00719697 21.9601C0.00719697 21.485 0.00719697 21.008 0.00719697 20.531C0.00719697 19.1198 0.00720262 19.1019 1.52027 18.9751C3.95792 18.7691 6.33183 18.0889 8.50863 16.9726C11.4387 15.4774 13.9364 13.2558 15.7632 10.5201C15.9204 10.2879 15.999 9.87529 16.3455 9.92531C16.6153 9.96282 16.6367 10.3415 16.7349 10.5826C17.2905 11.9653 17.8872 13.3337 18.7 14.5788C19.2073 15.3541 19.0715 15.8668 18.4677 16.5099C16.7177 18.421 14.703 20.0716 12.4851 21.4117C11.6205 21.9227 11.6205 21.9566 12.4726 22.4657C14.8002 23.8572 16.8974 25.6019 18.6893 27.6373C19.1519 28.159 19.1412 28.5716 18.7911 29.1343C18.0019 30.4302 17.3259 31.7917 16.7707 33.2037C16.6635 33.4681 16.6474 33.8772 16.3276 33.9183C16.0079 33.9594 15.8971 33.561 15.7381 33.327C12.8799 29.1844 9.02667 26.4851 4.12661 25.3096C3.08719 25.0492 2.02314 24.8995 0.952204 24.863C0.189416 24.8452 -0.0320962 24.5165 0.00363161 23.8252C0.0340002 23.2107 0.00898336 22.5854 0.00719697 21.9601Z" fill="#F3F3F3"/>
<path d="M198.63 22.1692C198.63 25.9468 198.63 29.7244 198.63 33.502C198.63 34.6471 198.55 34.7256 197.423 34.7364C196.351 34.7453 195.279 34.6953 194.207 34.7507C193.314 34.7971 192.975 34.4702 193 33.5735C193.044 31.9389 193.01 30.3025 193.01 28.6662C193.01 22.7485 193.01 16.8296 193.01 10.9095C193.01 9.48041 193.028 9.46793 194.452 9.46436C195.374 9.46436 196.295 9.46436 197.217 9.46436C198.621 9.46436 198.627 9.46434 198.627 10.8381C198.631 14.6145 198.633 18.3916 198.63 22.1692Z" fill="#F3F3F3"/>
<path d="M115.297 18.7946L115.351 18.7428L115.419 18.7767C115.379 18.7872 115.338 18.7932 115.297 18.7946Z" fill="#F3F3F3"/>
</svg>
