<svg width="271" height="44" viewBox="0 0 271 44" fill="none" xmlns="http://www.w3.org/2000/svg">
<path d="M230.845 21.9316C230.845 18.6952 230.867 15.4589 230.828 12.2202C230.819 11.4351 231.027 10.9717 231.749 10.5599C237.709 7.1683 243.65 3.74356 249.572 0.285672C250.237 -0.101614 250.713 -0.0910766 251.371 0.292699C257.299 3.74434 263.239 7.17023 269.192 10.5704C269.849 10.946 270.115 11.3403 270.111 12.1207C270.076 18.7096 270.076 25.2986 270.111 31.8875C270.111 32.6024 269.877 33.0026 269.264 33.3559C263.246 36.8021 257.239 40.2697 251.246 43.7588C250.652 44.104 250.231 44.0631 249.666 43.7355C243.674 40.2534 237.671 36.7904 231.659 33.3466C231.036 32.9956 230.825 32.5825 230.833 31.87C230.867 28.5599 230.845 25.2452 230.845 21.9316ZM266.667 22.0486C266.667 19.3189 266.652 16.5903 266.678 13.8582C266.678 13.2861 266.512 12.9398 266.003 12.6484C261.135 9.85903 256.275 7.05441 251.422 4.23459C250.789 3.86719 250.229 3.81573 249.572 4.19717C244.721 7.01698 239.861 9.82155 234.992 12.6109C234.452 12.921 234.238 13.2709 234.241 13.898C234.266 19.2802 234.266 24.6625 234.241 30.0447C234.241 30.7292 234.495 31.0825 235.06 31.4078C239.932 34.194 244.792 37.0022 249.638 39.8321C250.269 40.2007 250.724 40.1563 251.329 39.8041C256.142 36.996 260.97 34.2136 265.813 31.457C266.498 31.0685 266.692 30.6309 266.681 29.8867C266.641 27.274 266.667 24.6613 266.667 22.0486Z" fill="white"/>
<path d="M85.4531 17.9287C85.4616 22.8803 85.4679 27.8336 85.4718 32.7883C85.4718 34.018 85.3548 34.1128 84.1262 34.128C83.4242 34.1374 82.7222 34.128 82.0201 34.1151C81.5521 34.1151 81.3005 33.8671 81.2877 33.3932C81.2795 33.082 81.2725 32.7696 81.2725 32.4572C81.2725 25.4369 81.2725 18.4189 81.2725 11.4033C81.2725 9.78984 81.2725 9.78869 82.8883 9.78401C83.5903 9.78401 84.2924 9.81205 84.9944 9.77812C85.6707 9.74536 86.0474 10.0122 86.3247 10.6498C87.503 13.3667 88.7292 16.0636 89.9402 18.7676C91.1992 21.5757 92.4613 24.3839 93.7265 27.192C93.8318 27.426 93.8587 27.736 94.1945 27.8238C94.6134 27.6506 94.6309 27.213 94.7795 26.876C97.0716 21.6681 99.3813 16.4626 101.615 11.2325C102.083 10.1479 102.64 9.58271 103.868 9.76641C104.517 9.86235 105.192 9.76643 105.858 9.79218C106.677 9.82494 106.76 9.92441 106.805 10.7739C106.817 11.0079 106.805 11.2419 106.805 11.4759V32.6468C106.805 32.841 106.805 33.0364 106.805 33.2318C106.768 34.1526 106.688 34.2497 105.8 34.2778C105.021 34.3024 104.241 34.2778 103.46 34.2696C102.89 34.2614 102.602 33.9701 102.611 33.3921C102.611 33.0809 102.604 32.7685 102.604 32.456C102.604 28.0879 102.604 23.7197 102.604 19.3515V18.0644C102.136 18.1417 102.15 18.4728 102.06 18.7021C100.218 23.4221 98.3809 28.1444 96.5486 32.8691C96.0748 34.0918 96.0701 34.1082 94.7877 34.121C94.3197 34.1257 93.8517 34.1257 93.3836 34.121C92.1469 34.1093 92.1177 34.0952 91.666 32.965C90.6372 30.3955 89.6126 27.8246 88.5923 25.252C87.634 22.823 86.6921 20.3881 85.7421 17.9556C85.68 17.7743 85.7222 17.4583 85.4039 17.5566C85.2705 17.6034 85.3735 17.8094 85.4531 17.9287Z" fill="white"/>
<path d="M54.6773 17.758L54.6527 32.3836C54.6527 34.1281 54.6527 34.1386 52.9246 34.1304C50.3622 34.1211 50.6126 34.3715 50.6102 31.8009C50.6032 25.1706 50.6032 18.5423 50.6102 11.9159C50.6102 11.6047 50.6102 11.2923 50.6102 10.9799C50.6383 9.88002 50.7085 9.80983 51.8329 9.7876C52.6133 9.77472 53.3961 9.82619 54.173 9.77354C54.9499 9.72089 55.3817 10.045 55.6871 10.7529C56.7869 13.2919 57.93 15.8122 59.0615 18.3383C60.3509 21.2205 61.643 24.1012 62.9379 26.9803C62.9795 27.0895 63.0268 27.1965 63.0794 27.3009C63.3708 27.8005 63.6317 27.818 63.8985 27.2833C64.3946 26.2689 64.8439 25.2299 65.3025 24.1944C67.2518 19.7295 69.2081 15.2669 71.1317 10.7903C71.4312 10.0883 71.8127 9.72209 72.613 9.7724C73.5057 9.82856 74.4055 9.79699 75.3041 9.7888C75.8891 9.78294 76.1617 10.0649 76.1477 10.6441C76.1407 10.9167 76.1477 11.1905 76.1477 11.4631V32.5181C76.1477 32.7521 76.1547 32.9862 76.1477 33.2202C76.1021 34.1071 75.9933 34.2404 75.1204 34.2732C74.3412 34.3036 73.5607 34.2732 72.7803 34.2732C72.1953 34.2732 71.9285 33.983 71.9484 33.4038C71.9589 33.0914 71.9484 32.779 71.9484 32.4678C71.9484 28.0996 71.9484 23.7314 71.9484 19.3633V17.9733C71.4663 18.2073 71.4114 18.5782 71.2943 18.8766C69.5354 23.3859 67.7842 27.8941 66.0408 32.4011C65.9425 32.6562 65.8068 32.9007 65.7389 33.1617C65.5459 33.8695 65.1153 34.1784 64.3712 34.1304C63.7087 34.0924 63.0446 34.0924 62.3821 34.1304C61.6999 34.1655 61.322 33.8894 61.0716 33.2424C60.056 30.6262 58.9925 28.0286 57.9558 25.4206C57.049 23.1378 56.1586 20.8492 55.2541 18.5664C55.1371 18.2798 54.978 18.0119 54.8388 17.7358C54.7756 17.6585 54.7206 17.6585 54.6773 17.758Z" fill="white"/>
<path d="M35.0593 34.3351C33.315 34.411 31.5713 34.1732 29.9111 33.6331C27.2071 32.7392 25.1829 31.059 24.083 28.4276C22.3116 24.192 22.1174 19.8862 23.8654 15.5816C24.874 13.1011 26.718 11.3917 29.2289 10.5177C32.5905 9.34762 36.0409 9.3008 39.4715 10.1772C43.4719 11.1998 45.757 13.9213 46.5959 17.8737C47.2254 20.8445 47.2032 23.841 46.4275 26.786C45.4376 30.5489 43.0343 32.9136 39.2609 33.8905C37.89 34.2456 36.4741 34.3954 35.0593 34.3351ZM42.2293 21.9748C42.3311 20.5098 42.1263 19.0398 41.6279 17.6585C40.8381 15.481 39.2633 14.2384 37.0437 13.7622C35.744 13.4922 34.4044 13.4751 33.0983 13.7119C30.5113 14.1542 28.6954 15.5337 27.9617 18.0575C27.1427 20.8878 27.1228 23.7556 28.1958 26.5497C28.6874 27.8396 29.6429 28.8994 30.8752 29.5216C32.8081 30.5395 34.8533 30.5571 36.9161 30.2049C39.4177 29.7778 40.9914 28.2451 41.7555 25.8336C42.1441 24.5863 42.3046 23.2791 42.2293 21.9748Z" fill="white"/>
<path d="M176.76 18.3068C176.76 20.6071 176.76 22.9082 176.76 25.21C176.76 26.3918 176.526 27.5373 176.175 28.6559C175.424 31.0533 173.827 32.7077 171.481 33.5209C168.02 34.7202 164.489 34.7518 161.04 33.5209C157.842 32.3754 156.322 29.8727 155.939 26.5802C155.588 23.586 155.792 20.5825 155.751 17.5837C155.719 15.4003 155.737 13.2159 155.751 11.0314C155.751 9.85431 155.822 9.80167 157.03 9.78763C157.732 9.77983 158.434 9.77983 159.136 9.78763C160.306 9.80518 160.364 9.86017 160.371 11.0747C160.382 12.7514 160.371 14.428 160.371 16.1059C160.371 18.992 160.371 21.8781 160.371 24.7643C160.355 25.3102 160.398 25.8563 160.499 26.393C160.947 28.4171 162.131 29.7206 164.185 30.1617C165.851 30.5197 167.506 30.5349 169.135 29.9277C170.334 29.4842 171.198 28.7085 171.676 27.5068C172.1 26.4138 172.309 25.2495 172.293 24.0774C172.293 19.9823 172.293 15.8871 172.293 11.7919C172.293 11.5193 172.293 11.2455 172.293 10.9729C172.321 9.8742 172.39 9.80283 173.517 9.78294C174.258 9.77007 174.999 9.76422 175.74 9.78294C176.634 9.80985 176.74 9.90578 176.752 10.8149C176.773 12.4132 176.759 14.0126 176.76 15.6121V18.3032V18.3068Z" fill="white"/>
<path d="M142.027 14.8504C141.303 16.1924 140.842 17.5579 140.299 18.8859C138.38 23.5755 136.469 28.2689 134.566 32.9663C134.105 34.0977 134.081 34.1106 132.846 34.1199C132.027 34.1199 131.208 34.1387 130.389 34.1118C129.591 34.0837 129.5 33.948 129.804 33.1757C130.231 32.0876 130.697 31.0146 131.154 29.9393C133.758 23.8036 136.364 17.6698 138.974 11.538C139.856 9.47752 139.494 9.80867 141.571 9.77708C142.273 9.76655 142.975 9.80749 143.677 9.76771C144.379 9.72793 144.755 10.0228 145.015 10.6429C145.768 12.4401 146.553 14.2232 147.33 16.0111C149.658 21.3738 151.985 26.7365 154.312 32.0993C155.201 34.1597 155.354 34.1434 152.979 34.1258C152.355 34.1258 151.731 34.0989 151.107 34.1258C150.464 34.1574 150.123 33.8567 149.87 33.2857C149.162 31.6816 148.383 30.1079 147.683 28.5002C147.378 27.7982 146.946 27.4974 146.162 27.5197C144.524 27.5665 142.886 27.5349 141.248 27.5314C140.936 27.5381 140.623 27.5272 140.312 27.4986C139.921 27.4542 139.749 27.1933 139.883 26.8376C140.237 25.8891 140.614 24.9491 141.014 24.0177C141.198 23.5907 141.624 23.5848 142.02 23.5825C143.035 23.5825 144.049 23.5989 145.063 23.5638C145.795 23.5392 145.917 23.3753 145.625 22.6909C144.541 20.146 143.42 17.6164 142.308 15.0855C142.293 15.0282 142.206 14.9943 142.027 14.8504Z" fill="white"/>
<path d="M121.582 28.0146C121.961 27.7467 122.018 27.3395 122.159 26.9932C124.309 21.6811 126.452 16.3664 128.588 11.0489C129.097 9.78525 129.097 9.78293 130.46 9.77825C131.473 9.77825 132.488 9.76074 133.502 9.78648C134.308 9.80637 134.395 9.928 134.065 10.7002C133.102 12.9596 132.111 15.2061 131.127 17.4561C128.955 22.4206 126.798 27.3922 124.599 32.3427C123.62 34.5435 123.983 34.2615 121.602 34.2838C121.055 34.2896 120.508 34.2522 119.964 34.2908C119.177 34.3481 118.759 33.9866 118.47 33.2764C117.471 30.8193 116.429 28.3832 115.404 25.939C113.354 21.0505 111.304 16.1617 109.254 11.2724C108.632 9.78644 108.639 9.78293 110.283 9.78059C111.14 9.78059 112.001 9.82741 112.857 9.76774C113.712 9.70807 114.187 10.0415 114.509 10.8641C115.886 14.3859 117.324 17.8843 118.743 21.3886C119.548 23.3754 120.356 25.361 121.169 27.3454C121.265 27.5852 121.317 27.8684 121.582 28.0146Z" fill="white"/>
<path d="M13.2424 34.3354C10.7853 34.4102 8.48736 34.0897 6.2982 33.1478C3.80717 32.0748 2.03688 30.2742 1.08446 27.7469C-0.265781 24.163 -0.319604 20.4867 0.725249 16.8349C1.62736 13.6922 3.78494 11.6177 6.85514 10.5694C9.37535 9.71907 12.0475 9.41393 14.6945 9.67423C16.1325 9.80527 17.5646 9.94571 18.957 10.3529C20.1843 10.7121 20.2569 10.7952 20.2662 12.0377C20.2662 12.7 20.2662 13.3634 20.244 14.0268C20.2241 14.5323 19.9351 14.7125 19.4542 14.5815C19.191 14.5089 18.9324 14.4188 18.6715 14.3416C16.1699 13.6068 13.6321 13.347 11.0463 13.7706C7.86489 14.2913 5.47565 16.1282 4.9269 19.6138C4.61216 21.6134 4.70575 23.5849 5.32003 25.5085C6.13906 28.092 8.01114 29.5733 10.6016 30.1092C13.3232 30.672 16.0307 30.4765 18.6902 29.6716C20.1586 29.2269 20.1562 29.2176 20.3282 30.7141C20.6184 33.2402 20.6009 33.2589 18.1438 33.851C16.5403 34.2386 14.8908 34.4015 13.2424 34.3354Z" fill="white"/>
<path d="M206.285 24.0435C206.285 26.9687 206.291 29.8868 206.285 32.8084C206.285 34.0603 206.22 34.1142 204.955 34.1259C204.176 34.1341 203.398 34.1188 202.615 34.1177C202.087 34.1177 201.826 33.8568 201.825 33.3302C201.825 32.9792 201.816 32.6282 201.816 32.2772C201.816 26.707 201.816 21.1364 201.816 15.5654C201.816 15.253 201.829 14.9406 201.808 14.6293C201.755 13.8793 201.66 13.7576 200.886 13.7448C199.248 13.7179 197.61 13.7448 195.971 13.7272C194.906 13.7167 194.827 13.636 194.801 12.6122C194.786 11.9102 194.801 11.2081 194.811 10.5061C194.811 10.0287 195.067 9.79471 195.538 9.78769C195.811 9.78769 196.084 9.77597 196.358 9.77597H211.668C211.902 9.77597 212.136 9.76662 212.37 9.783C213.135 9.83682 213.247 9.92928 213.279 10.684C213.308 11.386 213.307 12.088 213.279 12.79C213.246 13.6091 213.15 13.7097 212.288 13.7261C210.808 13.7507 209.328 13.7331 207.847 13.7366C206.285 13.7366 206.281 13.7425 206.278 15.2787C206.28 18.2 206.282 21.1215 206.285 24.0435Z" fill="white"/>
<path d="M181.43 21.8111C181.43 18.3446 181.43 14.8777 181.43 11.4105C181.43 11.0993 181.436 10.7869 181.447 10.4745C181.463 10.0603 181.681 9.80984 182.098 9.80516C183.149 9.79346 184.202 9.79346 185.257 9.80516C185.684 9.80516 185.877 10.0813 185.888 10.4897C185.897 10.8407 185.903 11.1917 185.904 11.5427V28.3703C185.904 28.6429 185.898 28.9156 185.904 29.1894C185.935 30.219 186.009 30.315 187.06 30.3196C189.826 30.3337 192.592 30.3196 195.357 30.3267C197.409 30.3267 197.346 30.1559 197.346 32.2783C197.346 34.2674 197.364 34.127 195.492 34.1281C191.403 34.1281 187.313 34.1281 183.221 34.1281C182.87 34.1281 182.519 34.1211 182.168 34.1129C181.7 34.1012 181.458 33.8497 181.446 33.3816C181.439 33.0704 181.432 32.758 181.431 32.4456L181.43 21.8111Z" fill="white"/>
<path d="M85.4532 17.9289C85.3737 17.8119 85.2649 17.6036 85.4041 17.5615C85.7223 17.4632 85.6802 17.7792 85.7422 17.9605L85.4532 17.9289Z" fill="white"/>
<path d="M54.6775 17.7581C54.7208 17.6598 54.7758 17.6622 54.8401 17.7382L54.6775 17.7581Z" fill="white"/>
<path d="M237.435 15.9503C237.779 15.8707 238.013 16.1164 238.273 16.265C241.682 18.2272 245.082 20.2058 248.498 22.1551C249.063 22.4769 249.347 22.836 249.341 23.5287C249.31 27.425 249.327 31.3212 249.322 35.2175C249.322 35.4363 249.392 35.6855 249.159 35.8844C248.79 35.9406 248.528 35.6703 248.237 35.503C244.863 33.5595 241.498 31.5997 238.115 29.6703C237.552 29.3486 237.247 28.9835 237.252 28.299C237.274 24.4027 237.262 20.5065 237.265 16.6102C237.26 16.3821 237.242 16.1375 237.435 15.9503Z" fill="white"/>
<path d="M239.064 13.9354C239.278 13.5668 239.628 13.4568 239.924 13.286C243.092 11.4502 246.274 9.64244 249.426 7.77972C250.148 7.35383 250.735 7.30119 251.474 7.73762C254.626 9.59917 257.805 11.4139 260.975 13.245C261.112 13.3162 261.246 13.3943 261.376 13.479C261.833 13.8078 261.844 14.036 261.405 14.3636C261.276 14.4498 261.142 14.528 261.004 14.5976C257.833 16.4276 254.652 18.2376 251.501 20.0968C250.771 20.5286 250.2 20.5333 249.464 20.0968C246.248 18.1908 242.998 16.3422 239.762 14.4724C239.529 14.3519 239.27 14.2501 239.064 13.9354Z" fill="white"/>
<path d="M261.991 30.1536L251.912 35.9594C251.561 35.7253 251.614 35.4773 251.614 35.2573C251.609 31.8735 251.609 28.4897 251.614 25.1059C251.614 24.1781 251.759 24.0681 252.507 24.4952C255.577 26.2503 258.633 28.0311 261.692 29.8049C261.756 29.8458 261.795 29.9242 261.991 30.1536Z" fill="white"/>
</svg>
