<svg width="246" height="44" viewBox="0 0 246 44" fill="none" xmlns="http://www.w3.org/2000/svg">
<path d="M127.958 33.8594H119.546V32.3618C119.546 28.5138 119.561 24.6601 119.546 20.8149C119.536 20.0584 119.459 19.3042 119.315 18.5614C119.03 16.9896 118.214 15.8058 116.52 15.5662C114.78 15.3209 113.097 15.8515 112.412 17.4403C111.626 19.2489 111.155 21.1782 111.017 23.1454C110.803 26.6454 110.957 30.1683 110.957 33.8081H102.508C102.508 32.8553 102.508 31.9168 102.508 30.9783C102.485 27.1788 102.528 23.3764 102.411 19.5683C102.334 17.0353 101.085 15.5748 99.0995 15.4921C97.4137 15.4265 95.9247 16.094 95.2344 17.6571C94.5919 19.0194 94.2051 20.4881 94.0934 21.9901C93.9393 25.8752 94.042 29.7746 94.042 33.7938H85.6785V9.11389H93.1635V13.193L93.4487 13.4297C95.4169 10.1607 98.3322 8.61469 101.989 8.46351C105.717 8.31232 108.644 9.67581 110.393 13.2243C113.408 8.77441 117.57 7.88727 122.373 8.79152C124.972 9.28215 126.544 10.9395 127.322 13.3555C127.684 14.3872 127.89 15.4667 127.936 16.5589C127.99 22.281 127.958 27.9832 127.958 33.8594Z" fill="#EFEFEF"/>
<path d="M141.984 44.0001H133.567V9.03112C135.937 9.03112 138.29 9.00257 140.638 9.07673C140.875 9.07673 141.251 9.70999 141.283 10.0723C141.371 11.0963 141.314 12.1347 141.46 13.2557C142.957 10.9052 145.037 9.54744 147.652 8.83431C152.171 7.62199 156.538 9.19369 159.105 13.076C162.599 18.3588 161.938 26.768 158.044 31.1865C154.427 35.297 145.778 36.0358 141.984 30.7501V44.0001ZM152.904 21.5051C152.502 20.1388 152.308 18.7382 151.697 17.5545C149.92 14.0858 145.088 14.0002 143.077 17.3462C141.502 19.9705 141.534 22.6918 142.951 25.3332C143.856 27.0219 145.328 28.0317 147.336 28.0117C149.253 27.9918 150.779 27.1417 151.614 25.4445C152.214 24.2521 152.47 22.8829 152.904 21.5051Z" fill="#EFEFEF"/>
<path d="M29.0105 1.71444L28.3259 8.42919C26.4005 7.8159 24.6177 7.07144 22.7521 6.69491C19.1893 5.97608 15.735 6.30123 12.7969 8.72586C9.37386 11.5498 8.1159 16.7386 9.68193 21.2113C10.3881 23.2232 11.7127 24.9601 13.466 26.1734C15.2193 27.3867 17.3116 28.0142 19.4432 27.9661C21.8279 27.9347 24.2098 27.3442 26.5888 26.9677C27.2786 26.8208 27.9603 26.6379 28.6312 26.42C28.7709 28.5223 28.9392 30.4934 28.9963 32.4673C28.9963 32.7525 28.5484 33.2774 28.2232 33.3602C21.9163 34.9861 15.638 35.1458 9.53931 32.5044C3.66314 29.9714 0.616655 25.3218 0.0889402 19.0434C-0.307559 14.3168 0.573868 9.87257 3.70022 6.09015C6.51565 2.6814 10.2867 1.08119 14.5198 0.3595C19.3862 -0.45917 24.1384 0.174087 29.0105 1.71444Z" fill="#EFEFEF"/>
<path d="M67.4053 34.5841C62.228 34.3274 58.166 33.2777 55.1138 29.8204C50.0848 24.1154 50.855 11.4816 62.3849 8.94855C66.7178 7.99581 71.0052 8.22972 74.9559 10.449C79.7681 13.1532 81.5167 17.5803 81.1173 22.8203C80.6894 28.3114 77.5231 31.8913 72.3572 33.5971C70.5431 34.199 68.5805 34.3616 67.4053 34.5841ZM60.7618 21.1773C61.067 22.6035 61.2097 23.8814 61.6176 25.0709C62.4334 27.3786 64.3645 28.6281 66.7521 28.5967C67.8521 28.5893 68.9229 28.2414 69.8172 27.6009C70.7116 26.9604 71.3856 26.0587 71.7468 25.0196C72.6678 22.5945 72.6002 19.9047 71.5585 17.5289C70.7028 15.5065 69.0113 14.4225 66.8833 14.3512C64.664 14.277 62.7357 15.1214 61.8343 17.3378C61.3551 18.5901 61.1298 19.9564 60.7732 21.1887L60.7618 21.1773Z" fill="#EFEFEF"/>
<path d="M201.645 34.6039C195.885 34.3186 191.638 33.2518 188.571 29.4693C183.982 23.8071 184.758 11.8552 195.466 9.13672C200.566 7.84168 205.478 8.19253 209.903 11.2675C213.822 13.9888 215.18 18.0108 214.854 22.5834C214.501 27.5297 212.116 31.2636 207.392 33.0949C205.219 33.9364 202.857 34.2958 201.645 34.6039ZM194.562 21.103C194.847 22.4807 194.958 23.7187 195.329 24.8768C196.091 27.2701 198.033 28.6165 200.464 28.608C201.59 28.6189 202.691 28.2729 203.609 27.6195C204.527 26.9662 205.214 26.039 205.572 24.971C206.389 22.6667 206.365 20.1478 205.504 17.8596C204.682 15.6632 202.962 14.4366 200.626 14.3482C198.344 14.2569 196.427 15.3837 195.546 17.5345C195.069 18.6955 194.864 19.9705 194.562 21.103Z" fill="#EFEFEF"/>
<path d="M227.822 33.848H219.404C219.373 33.3574 219.313 32.8611 219.31 32.3619C219.31 25.0908 219.341 17.8141 219.276 10.5516C219.276 9.24228 219.704 8.93421 220.91 8.98556C222.89 9.07398 224.878 9.01118 227.003 9.01118V13.25C228.375 11.3874 229.984 10.0011 232.072 9.20521C239.144 6.50958 245.003 10.1836 245.741 17.7627C245.779 18.1393 245.776 18.5215 245.776 18.9037C245.776 23.8386 245.776 28.7762 245.776 33.8195H237.332C237.332 33.249 237.332 32.7042 237.332 32.1536C237.258 27.9747 237.304 23.7929 237.047 19.6254C236.896 17.0267 235.538 15.6832 233.53 15.4607C232.431 15.342 231.324 15.6107 230.402 16.2205C229.48 16.8304 228.799 17.743 228.478 18.801C228.082 20.0161 227.867 21.2829 227.839 22.5606C227.771 26.2717 227.822 29.9772 227.822 33.848Z" fill="#EFEFEF"/>
<path d="M163.561 14.8817C163.561 13.0276 163.509 11.4188 163.609 9.8185C163.629 9.53325 164.254 9.07687 164.625 9.04834C165.891 8.95135 167.166 9.01122 168.618 9.01122C168.618 7.46231 168.675 6.05037 168.595 4.64694C168.544 3.71702 168.88 3.31766 169.762 3.06663C172.115 2.39059 174.44 1.61181 176.97 0.81311V8.95418H182.96V14.8817C181.48 14.8817 179.98 14.933 178.488 14.8646C177.418 14.8161 176.962 15.0871 177.002 16.2908C177.096 19.0407 177.002 21.799 177.059 24.5631C177.116 28.2571 178.502 29.3839 182.193 28.8134C182.421 28.7763 182.652 28.7563 183.132 28.6964V34.0763C179.777 34.6468 176.24 35.0261 172.797 33.771C169.756 32.6614 168.729 30.0628 168.635 27.0876C168.524 23.5305 168.55 19.9563 168.612 16.4021C168.635 15.1869 168.204 14.8075 167.052 14.8874C165.96 14.9416 164.87 14.8817 163.561 14.8817Z" fill="#EFEFEF"/>
<path d="M41.3476 33.8596C40.817 33.8938 40.4918 33.9338 40.1695 33.9338C37.8019 33.9338 35.4315 33.9338 32.9612 33.9338V9.03421C35.2974 9.03421 37.6536 9.00852 40.004 9.08268C40.2208 9.08268 40.5603 9.75021 40.5916 10.1267C40.6744 11.1337 40.6202 12.152 40.7799 13.2474C43.0391 9.09412 46.4136 7.75342 51.0176 8.806C50.8864 11.0652 50.7551 13.3101 50.6182 15.6692C49.985 15.6264 49.4772 15.6178 48.9666 15.5522C44.9731 15.0416 41.9694 17.1781 41.59 21.2001C41.2705 24.5889 41.4075 28.0205 41.3476 31.435C41.3362 32.1937 41.3476 32.9497 41.3476 33.8596Z" fill="#EFEFEF"/>
</svg>
