<svg width="262" height="40" viewBox="0 0 262 40" fill="none" xmlns="http://www.w3.org/2000/svg">
<path d="M164.022 25.4809C164.022 27.9362 164.033 30.3916 164.022 32.845C163.997 37.215 162.058 39.3663 157.701 39.7905C153.896 40.1659 150.159 39.9782 146.649 38.2306C146.307 38.0597 145.986 37.9321 145.594 38.1724C141.623 40.5995 137.349 40.0627 133.08 39.3944C131.829 39.169 130.591 38.8751 129.371 38.514C127.999 38.1386 127.43 37.2282 127.447 35.7827C127.496 31.3451 127.423 26.9057 127.492 22.4699C127.511 21.3192 127.147 21.062 126.065 21.0883C123.045 21.1578 120.021 21.139 117.001 21.0883C116.133 21.0771 115.758 21.2366 115.779 22.2278C115.844 25.3889 115.779 28.5538 115.811 31.7168C115.824 33.4926 116.481 34.1815 118.285 34.2829C119.079 34.3279 119.88 34.2097 120.68 34.1665C121.01 34.1478 121.463 33.9788 121.649 34.1402C122.818 35.1126 122.45 36.6162 122.812 37.8739C123.013 38.5722 122.437 38.8332 121.832 39.0002C119.017 39.7699 116.148 39.9726 113.288 39.4C109.873 38.7149 108.18 36.5261 108.116 32.8037C108.056 29.3585 108.056 25.912 108.116 22.4643C108.139 21.3568 107.836 21.002 106.704 21.0376C104.159 21.1202 101.604 21.124 99.0569 21.0376C97.8161 20.9963 97.3674 21.276 97.3862 22.6407C97.4763 27.6903 97.3862 32.7436 97.4463 37.7951C97.4594 38.9551 97.1497 39.3888 95.9446 39.3156C94.3417 39.218 92.7344 39.218 91.1315 39.3156C89.9076 39.3925 89.6298 38.9157 89.6448 37.7763C89.6974 32.7249 89.6279 27.6734 89.6955 22.622C89.7124 21.4093 89.4496 20.9945 88.1562 21.0283C85.3405 21.1034 85.6183 21.4788 85.607 18.4847C85.5958 15.7159 85.607 15.669 88.3533 15.7027C89.4327 15.7196 89.7762 15.3874 89.6861 14.338C89.6311 13.443 89.6436 12.545 89.7236 11.6518C89.9602 8.19033 91.9068 6.04662 95.3101 5.55856C97.9062 5.18313 100.48 5.43842 103.046 5.93399C104.093 6.13673 104.379 6.66984 104.172 7.62344C104.157 7.7167 104.146 7.81068 104.14 7.90501C103.765 10.9742 103.765 10.9742 100.69 10.7395C98.0301 10.5349 96.3726 12.8927 97.45 15.3048C97.6378 15.7178 97.9588 15.6709 98.2722 15.6709C101.248 15.6802 104.223 15.6709 107.196 15.6859C107.88 15.6859 108.103 15.4212 108.092 14.7642C108.064 13.2061 108.107 11.6481 108.075 10.0901C108.056 9.174 108.409 8.71597 109.349 8.58833C111.029 8.35368 112.706 8.06269 114.367 7.71542C115.478 7.48265 115.82 7.90316 115.796 8.95812C115.756 10.6476 115.859 12.3614 115.76 14.0565C115.687 15.301 115.998 15.7459 117.354 15.7178C122.735 15.6314 128.119 15.7328 133.497 15.6502C134.974 15.6277 135.333 16.1326 135.316 17.5273C135.247 22.8604 135.316 28.1971 135.264 33.532C135.254 34.5739 135.59 34.9868 136.596 35.0075C137.253 35.0206 137.91 35.1633 138.566 35.2121C140.743 35.3698 141.8 34.4913 141.841 32.3288C141.907 28.8823 141.884 25.4358 141.896 21.9894C141.896 20.3375 141.954 18.6818 141.875 17.0337C141.822 15.943 142.25 15.6333 143.277 15.6709C144.927 15.729 146.585 15.7459 148.233 15.6709C149.387 15.6164 149.673 16.0951 149.665 17.1613C149.628 22.5431 149.688 27.9268 149.618 33.3049C149.603 34.5401 150.016 35.03 151.193 35.0413C151.662 35.0413 152.132 35.1914 152.597 35.2177C154.996 35.3491 156.243 34.1928 156.248 31.7975C156.262 26.9357 156.284 22.072 156.231 17.2101C156.218 16.0463 156.564 15.607 157.754 15.669C159.402 15.7534 161.06 15.7309 162.71 15.669C163.691 15.6352 164.039 15.9881 164.024 16.983C163.99 19.8137 164.022 22.6483 164.022 25.4809Z" fill="white"/>
<path d="M225.865 30.6166C223.789 30.6166 221.711 30.6448 219.635 30.6035C218.773 30.5866 218.57 30.9132 218.732 31.7054C219.058 33.301 220.13 34.3578 221.896 34.7201C224.594 35.2701 227.246 34.9829 229.874 34.279C231.677 33.7965 231.795 33.866 232.21 35.593C232.848 38.251 232.848 38.2454 230.158 39.0057C226.362 40.0794 222.512 40.1733 218.662 39.4731C214.003 38.6246 211.493 35.8351 210.833 30.718C210.45 27.9511 210.549 25.1388 211.127 22.4059C212.049 18.2067 214.318 16.0799 218.596 15.4172C221.705 14.9348 224.791 14.9705 227.836 15.8922C230.668 16.7463 232.377 18.6066 233.092 21.4561C233.747 24.0503 233.728 26.6878 233.715 29.3402C233.715 30.3501 233.101 30.6185 232.236 30.6166H225.854H225.865ZM222.428 26.2166C223.417 26.2166 224.406 26.2166 225.396 26.2166C225.752 26.2166 226.24 26.3067 226.24 25.7435C226.24 24.1066 226.488 22.3477 225.206 21.06C223.924 19.7723 222.244 19.9506 220.674 20.3598C219.075 20.7747 218.107 23.1587 218.668 25.5746C218.989 26.9562 220.325 25.9406 221.163 26.2015C221.549 26.316 222.004 26.2184 222.428 26.2166Z" fill="white"/>
<path d="M59.9799 27.6114C59.9609 26.255 60.0431 24.8991 60.2259 23.5549C60.8247 18.8169 63.3401 16.172 68.0536 15.4211C70.9688 14.9556 73.8728 14.9744 76.7543 15.7158C80.1331 16.5869 82.2262 18.7193 82.9583 22.147C83.6833 25.5232 83.7216 29.0107 83.0709 32.4019C82.2675 36.6499 79.9379 38.8125 75.6036 39.5708C72.9509 40.0432 70.2347 40.0317 67.5862 39.537C63.2481 38.7223 60.8284 36.1225 60.2484 31.7318C60.0472 30.3679 59.9574 28.9899 59.9799 27.6114ZM67.9128 27.4068C67.8978 29.0118 67.8678 30.6186 68.185 32.203C68.5605 34.1027 69.5966 34.8648 71.7516 34.8573C73.9066 34.8497 74.9691 34.0914 75.2657 32.156C75.7415 29.072 75.7415 25.9331 75.2657 22.8491C74.9747 20.9719 73.9385 20.2398 71.8549 20.221C69.5873 20.2023 68.6318 20.8593 68.2169 22.7552C67.8734 24.2888 67.8997 25.8488 67.9128 27.4068Z" fill="white"/>
<path d="M189.76 28.4862C189.76 30.6562 189.78 32.828 189.76 34.998C189.739 37.168 188.905 38.3488 186.812 38.9401C182.337 40.1908 177.625 40.3371 173.081 39.3662C168.168 38.3394 165.897 32.6722 168.431 28.306C169.505 26.457 171.271 25.7436 173.216 25.3851C175.626 24.9421 178.061 24.6342 180.471 24.1912C181.057 24.0842 182.044 24.4108 182.058 23.2658C182.071 22.1207 182.174 20.8987 180.719 20.4932C178.956 20.0014 177.153 20.1534 175.382 20.4012C173.892 20.6115 172.424 20.9813 170.958 21.3398C170.271 21.505 169.864 21.3736 169.745 20.6377C169.7 20.358 169.644 20.0746 169.58 19.8043C168.901 16.8402 168.893 16.8008 171.891 16.1156C175.833 15.2015 179.794 14.7622 183.816 15.4605C187.946 16.1757 189.765 18.3551 189.765 22.5487C189.764 24.5247 189.762 26.5039 189.76 28.4862ZM182.063 31.6867C182.063 30.7932 182.063 29.9015 182.063 29.008C182.063 28.5049 181.96 28.2102 181.335 28.3303C179.861 28.6175 178.371 28.8146 176.899 29.1169C175.961 29.3046 175.275 29.9297 175.103 30.8926C174.868 32.2067 174.765 33.6014 176.015 34.5025C177.746 35.747 179.758 35.5067 181.569 34.906C182.696 34.5306 181.838 33.1472 182.058 32.248C182.081 32.0617 182.083 31.8733 182.061 31.6867H182.063Z" fill="white"/>
<path d="M47.9736 15.1266C50.1882 15.1451 52.3931 15.4216 54.5437 15.9507C55.5555 16.1966 55.8033 16.6715 55.5968 17.6701C54.9867 20.6361 55.0148 20.6736 52.0189 20.2118C50.7645 19.9923 49.4876 19.9292 48.2176 20.0241C47.0388 20.1386 45.935 20.5178 45.8336 21.9651C45.7379 23.3411 46.5845 24.015 47.8103 24.3153C49.2707 24.672 50.7556 24.9441 52.1972 25.3646C54.692 26.0892 55.9797 27.8688 56.312 30.3917C57.0441 35.95 54.3447 39.2725 48.6156 39.7888C45.3475 40.0835 42.1281 39.6724 38.9463 38.8896C37.9289 38.6381 37.6323 38.1725 37.82 37.0838C38.3475 33.8926 38.2912 33.8926 41.3867 34.5158C42.9128 34.8236 44.4483 35.094 46.0139 34.9739C47.6733 34.8462 48.5574 34.0596 48.6194 32.7362C48.6813 31.4128 48.0956 30.7427 46.3818 30.3316C45.1447 30.0369 43.8758 29.8511 42.6631 29.4813C39.5639 28.5427 38.1298 26.4909 38.0228 23.0182C37.912 19.4422 39.3255 17.1051 42.2914 15.9544C44.1104 15.2411 46.0345 15.1285 47.9736 15.1266Z" fill="white"/>
<path d="M0.0364852 17.8782C-0.0592501 15.1545 0.0364886 11.8957 1.40682 8.84532C4.04423 2.97356 8.72774 0.210378 15.0575 0.0226621C16.4729 -0.0186355 17.892 0.048968 19.3074 0.00203894C20.109 -0.0261185 20.4074 0.232906 20.3098 1.05698C20.007 3.58489 19.7329 6.11718 19.4876 8.65385C19.4332 9.19822 19.2098 9.38408 18.6917 9.37281C17.7944 9.35404 16.8972 9.37281 15.9999 9.37281C11.7368 9.4066 9.56496 11.5447 9.49926 15.8302C9.45984 18.2856 9.45232 20.7428 9.50864 23.1962C9.53117 24.1498 9.29652 24.5346 8.26221 24.5102C5.95142 24.437 3.635 24.4464 1.31671 24.5102C0.353727 24.5365 -0.0367228 24.2812 0.00269763 23.26C0.0909242 21.6419 0.0364852 20.0332 0.0364852 17.8782Z" fill="white"/>
<path d="M25.4028 21.4358C25.5398 24.3454 25.3333 27.7618 23.8091 30.9623C21.3688 36.0757 17.254 38.8708 11.6939 39.5016C9.78294 39.7174 7.82882 39.5429 5.89722 39.6029C5.09379 39.6292 4.95864 39.2932 5.03936 38.5892C5.33032 36.1489 5.61565 33.7236 5.82964 31.2833C5.89534 30.5437 6.17504 30.2903 6.87522 30.3279C7.4853 30.3617 8.10101 30.3279 8.71296 30.3279C13.6593 30.2979 15.9438 28.019 15.9982 23.037C16.0226 20.9627 16.0376 18.8866 15.987 16.8123C15.9663 15.977 16.1747 15.6485 17.0813 15.671C19.5329 15.7311 21.9864 15.7123 24.4379 15.671C25.1569 15.671 25.446 15.8587 25.4178 16.6227C25.3615 18.0381 25.4028 19.4554 25.4028 21.4358Z" fill="white"/>
<path d="M195.432 28.3811C195.432 25.3626 195.488 22.3423 195.408 19.3257C195.366 17.8559 195.958 17.0055 197.306 16.5869C200.808 15.5019 204.416 15.2147 208.058 15.1771C208.809 15.1771 209.175 15.5714 209.242 16.2903C209.252 16.3842 209.259 16.478 209.267 16.5719C209.61 20.6378 209.61 20.6378 205.544 20.8406C205.451 20.8406 205.357 20.8537 205.263 20.8593C203.132 20.9982 203.132 20.9982 203.132 23.1119C203.132 28.0169 203.095 32.922 203.159 37.827C203.175 39.0265 202.783 39.3794 201.632 39.3174C199.986 39.2292 198.329 39.2423 196.68 39.3174C195.659 39.3606 195.398 38.9664 195.413 38.0034C195.457 34.7954 195.432 31.5873 195.432 28.3811Z" fill="white"/>
<path d="M261.611 22.7723C261.611 25.787 261.568 25.8339 258.582 25.9728C253.609 26.2056 251.901 24.3472 252.575 19.429C252.903 16.9887 253.926 15.975 256.37 15.5958C257.895 15.3593 259.374 15.6109 260.857 15.93C261.581 16.0858 261.587 16.4931 261.497 17.0751C261.394 17.749 260.958 17.5706 260.541 17.5125C259.415 17.351 258.3 17.2196 257.162 17.366C256.091 17.5031 255.473 18.0849 255.206 19.1174C255.013 19.8976 254.95 20.7044 255.019 21.5052C255.176 23.7352 256.096 24.5086 258.328 24.366C258.848 24.3322 259.357 24.2834 259.21 23.6151C259.081 23.0313 259.774 22.0927 258.593 21.9257C257.951 21.8299 257.393 21.7867 257.478 20.8726C257.577 19.78 258.384 20.3939 258.861 20.2212C258.908 20.2136 258.955 20.2136 259.002 20.2212C261.611 20.2005 261.611 20.2006 261.611 22.7723Z" fill="white"/>
<path d="M249.446 25.8674C248.304 26.1921 248.013 25.3568 247.963 24.5533C247.826 22.389 246.258 23.0178 244.997 22.8507C243.626 22.663 243.328 23.4402 243.09 24.497C242.789 25.811 241.929 26.2446 240.636 25.8974C240.152 25.7678 240.182 25.5219 240.296 25.1746C241.288 22.2331 242.292 19.2954 243.262 16.352C243.431 15.8358 243.748 15.7701 244.21 15.7344C247.52 15.4772 247.518 15.4697 248.528 18.6741C249.155 20.6451 249.733 22.6349 250.442 24.5758C250.85 25.6552 250.66 26.0795 249.446 25.8674ZM245.438 21.2777C246.958 21.2777 247.02 21.2608 246.881 20.6432C246.664 19.6877 246.361 18.7529 246.078 17.8143C245.994 17.5365 245.825 17.3019 245.485 17.3225C245.145 17.3432 245.047 17.5947 244.971 17.8857C244.827 18.5239 244.639 19.1512 244.407 19.7628C243.863 21.0599 244.298 21.486 245.438 21.2777Z" fill="white"/>
</svg>
